<?xml version="1.0" encoding="UTF-8" standalone="no"?>
<svg width="509px" height="209px" viewBox="0 0 509 209" version="1.1" xmlns="http://www.w3.org/2000/svg" xmlns:xlink="http://www.w3.org/1999/xlink" xmlns:sketch="http://www.bohemiancoding.com/sketch/ns">
    <title>Untitled 8</title>
    <description>Created with Sketch (http://www.bohemiancoding.com/sketch)</description>
    <defs></defs>
    <g id="Page-1" stroke="none" stroke-width="1" fill="none" fill-rule="evenodd" sketch:type="MSPage">
        <g id="header-lg" sketch:type="MSLayerGroup" transform="translate(1.000000, 0.000000)">
            <g id="Page-1" sketch:type="MSShapeGroup">
                <path d="M33.85,58.5 C33.85,49.59 29.45,42.66 20.98,35.07 C12.4,27.26 9.54,23.08 9.54,15.93 C9.54,11.31 12.07,8.45 16.91,8.45 C22.3,8.45 24.72,12.3 24.72,17.91 L24.72,23.74 L33.41,23.74 L33.41,16.92 C33.41,7.24 27.03,0.42 17.13,0.42 C6.24,0.42 0.52,7.9 0.52,17.69 C0.52,27.26 7.89,35.73 14.6,41.67 C22.08,48.38 24.83,53.33 24.83,60.15 C24.83,65.21 22.19,68.62 16.8,68.62 C11.63,68.62 8.77,65.1 8.77,58.94 L8.77,53.22 L-0.25,53.22 L-0.25,59.93 C-0.25,69.5 6.46,76.32 16.8,76.32 C25.93,76.32 33.85,70.38 33.85,58.5 L33.85,58.5 Z M76.64,75 L76.64,1.74 L67.51,1.74 L67.51,34.3 L50.9,34.3 L50.9,1.74 L41.66,1.74 L41.66,75 L50.9,75 L50.9,42.55 L67.51,42.55 L67.51,75 L76.64,75 L76.64,75 Z M115.25,75 L115.25,66.64 L95.67,66.64 L95.67,40.9 L109.86,40.9 L109.86,32.87 L95.67,32.87 L95.67,10.1 L115.25,10.1 L115.25,1.74 L86.54,1.74 L86.54,75 L115.25,75 L115.25,75 Z M189.94,1.74 L181.14,1.74 L174.43,55.09 L166.62,1.74 L158.7,1.74 L149.9,55.09 L143.74,1.74 L134.5,1.74 L145.06,75 L153.86,75 L162.11,26.05 L169.59,75 L178.39,75 L189.94,1.74 L189.94,1.74 Z M229.32,58.28 L229.32,18.46 C229.32,8.12 223.27,0.42 212.05,0.42 C200.83,0.42 194.78,8.12 194.78,18.46 L194.78,58.28 C194.78,68.73 200.83,76.32 212.05,76.32 C223.27,76.32 229.32,68.73 229.32,58.28 L229.32,58.28 Z M220.19,59.27 C220.19,64.33 217.44,67.96 212.05,67.96 C206.55,67.96 203.91,64.33 203.91,59.27 L203.91,17.47 C203.91,12.52 206.55,8.78 212.05,8.78 C217.44,8.78 220.19,12.52 220.19,17.47 L220.19,59.27 L220.19,59.27 Z M273.87,75.66 L273.87,69.17 C272,69.17 271.34,68.29 271.34,66.31 L271.34,50.69 C271.34,45.41 268.92,40.46 263.2,39.25 C269.03,37.82 271.01,33.86 271.01,27.59 L271.01,16.48 C271.01,6.36 265.73,1.74 256.38,1.74 L238.45,1.74 L238.45,75 L247.69,75 L247.69,42.88 L255.94,42.88 C260.23,42.88 262.21,45.74 262.21,50.14 L262.21,66.86 C262.21,73.68 264.74,75.66 271.45,75.66 L273.87,75.66 L273.87,75.66 Z M261.88,28.36 C261.88,32.98 259.46,35.51 255.39,35.51 L247.69,35.51 L247.69,9.99 L256.27,9.99 C260.23,9.99 261.88,12.3 261.88,16.15 L261.88,28.36 L261.88,28.36 Z M315.34,75 L300.38,33.31 L315.23,1.74 L305.77,1.74 L289.6,38.7 L289.6,1.74 L280.47,1.74 L280.47,75 L289.6,75 L289.6,53.55 L294.55,42.44 L305.55,75 L315.34,75 L315.34,75 Z M352.3,58.5 C352.3,49.59 347.9,42.66 339.43,35.07 C330.85,27.26 327.99,23.08 327.99,15.93 C327.99,11.31 330.52,8.45 335.36,8.45 C340.75,8.45 343.17,12.3 343.17,17.91 L343.17,23.74 L351.86,23.74 L351.86,16.92 C351.86,7.24 345.48,0.42 335.58,0.42 C324.69,0.42 318.97,7.9 318.97,17.69 C318.97,27.26 326.34,35.73 333.05,41.67 C340.53,48.38 343.28,53.33 343.28,60.15 C343.28,65.21 340.64,68.62 335.25,68.62 C330.08,68.62 327.22,65.1 327.22,58.94 L327.22,53.22 L318.2,53.22 L318.2,59.93 C318.2,69.5 324.91,76.32 335.25,76.32 C344.38,76.32 352.3,70.38 352.3,58.5 L352.3,58.5 Z" id="SHE-WORKS" fill="#BBBBBB"></path>
                <path d="M54.76,208 L54.76,101.44 L37.8,101.44 L37.8,147.68 L19.88,147.68 L19.88,101.44 L2.92,101.44 L2.92,208 L19.88,208 L19.88,163.2 L37.8,163.2 L37.8,208 L54.76,208 L54.76,208 Z M109.16,208 L109.16,192.48 L83.56,192.48 L83.56,160 L101.32,160 L101.32,145.92 L83.56,145.92 L83.56,116.48 L109.16,116.48 L109.16,101.44 L66.6,101.44 L66.6,208 L109.16,208 L109.16,208 Z M169.96,208.48 L169.96,203.68 C167.88,200.96 166.76,197.6 166.76,192.8 L166.76,171.04 C166.76,164.48 163.24,158.72 156.36,156.32 C163.24,153.76 166.44,148.48 166.44,141.28 L166.44,122.4 C166.44,108 157.32,101.44 145.48,101.44 L118.28,101.44 L118.28,208 L135.24,208 L135.24,163.04 L143.56,163.04 C148.2,163.04 150.44,166.56 150.44,170.88 L150.44,193.76 C150.44,202.08 153,208.48 159.56,208.48 L169.96,208.48 L169.96,208.48 Z M149.8,142.24 C149.8,147.36 147.56,149.76 143.4,149.76 L135.24,149.76 L135.24,116 L144.04,116 C148.04,116 149.8,118.4 149.8,122.88 L149.8,142.24 L149.8,142.24 Z M268.68,208 L268.68,101.44 L246.12,101.44 L237,155.36 L233.96,176 L231.08,155.36 L221.8,101.44 L198.92,101.44 L198.92,208 L213.96,208 L213.96,128.8 L217.16,151.2 L226.6,208 L239.4,208 L249.32,151.2 L252.68,128.8 L252.68,208 L268.68,208 L268.68,208 Z M330.44,184.64 L330.44,124.8 C330.44,110.08 320.36,99.52 305,99.52 C289.64,99.52 279.56,110.08 279.56,124.8 L279.56,184.64 C279.56,199.52 289.64,209.92 305,209.92 C320.36,209.92 330.44,199.52 330.44,184.64 L330.44,184.64 Z M313.32,185.92 C313.32,191.04 310.28,194.56 305,194.56 C299.72,194.56 296.68,191.04 296.68,185.92 L296.68,123.52 C296.68,118.4 299.72,114.88 305,114.88 C310.28,114.88 313.32,118.4 313.32,123.52 L313.32,185.92 L313.32,185.92 Z M393.48,208 L393.48,101.44 L378.28,101.44 L378.28,166.72 L372.84,150.24 L356.2,101.44 L341.16,101.44 L341.16,208 L356.52,208 L356.52,143.36 L362.44,159.68 L380.36,208 L393.48,208 L393.48,208 Z M447.88,208 L447.88,192.48 L422.28,192.48 L422.28,160 L440.04,160 L440.04,145.92 L422.28,145.92 L422.28,116.48 L447.88,116.48 L447.88,101.44 L405.32,101.44 L405.32,208 L447.88,208 L447.88,208 Z M507.4,101.44 L490.6,101.44 L479.56,146.08 L468.2,101.44 L450.92,101.44 L470.12,165.12 L470.12,208 L487.08,208 L487.08,165.12 L507.4,101.44 L507.4,101.44 Z" id="HER-MONEY" fill="#177F7D"></path>
            </g>
        </g>
    </g>
</svg>