<?xml version="1.0" encoding="UTF-8" standalone="no"?>
<svg width="509px" height="199px" viewBox="0 0 509 199" version="1.1" xmlns="http://www.w3.org/2000/svg" xmlns:xlink="http://www.w3.org/1999/xlink" xmlns:sketch="http://www.bohemiancoding.com/sketch/ns">
    <title>Untitled 6</title>
    <description>Created with Sketch (http://www.bohemiancoding.com/sketch)</description>
    <defs></defs>
    <g id="Page-1" stroke="none" stroke-width="1" fill="none" fill-rule="evenodd" sketch:type="MSPage">
        <path d="M34.85,58.5 C34.85,49.59 30.45,42.66 21.98,35.07 C13.4,27.26 10.54,23.08 10.54,15.93 C10.54,11.31 13.07,8.45 17.91,8.45 C23.3,8.45 25.72,12.3 25.72,17.91 L25.72,23.74 L34.41,23.74 L34.41,16.92 C34.41,7.24 28.03,0.42 18.13,0.42 C7.24,0.42 1.52,7.9 1.52,17.69 C1.52,27.26 8.89,35.73 15.6,41.67 C23.08,48.38 25.83,53.33 25.83,60.15 C25.83,65.21 23.19,68.62 17.8,68.62 C12.63,68.62 9.77,65.1 9.77,58.94 L9.77,53.22 L0.75,53.22 L0.75,59.93 C0.75,69.5 7.46,76.32 17.8,76.32 C26.93,76.32 34.85,70.38 34.85,58.5 Z M77.64,75 L77.64,1.74 L68.51,1.74 L68.51,34.3 L51.9,34.3 L51.9,1.74 L42.66,1.74 L42.66,75 L51.9,75 L51.9,42.55 L68.51,42.55 L68.51,75 L77.64,75 Z M116.25,75 L116.25,66.64 L96.67,66.64 L96.67,40.9 L110.86,40.9 L110.86,32.87 L96.67,32.87 L96.67,10.1 L116.25,10.1 L116.25,1.74 L87.54,1.74 L87.54,75 L116.25,75 Z M190.94,1.74 L182.14,1.74 L175.43,55.09 L167.62,1.74 L159.7,1.74 L150.9,55.09 L144.74,1.74 L135.5,1.74 L146.06,75 L154.86,75 L163.11,26.05 L170.59,75 L179.39,75 L190.94,1.74 Z M230.32,58.28 L230.32,18.46 C230.32,8.12 224.27,0.42 213.05,0.42 C201.83,0.42 195.78,8.12 195.78,18.46 L195.78,58.28 C195.78,68.73 201.83,76.32 213.05,76.32 C224.27,76.32 230.32,68.73 230.32,58.28 Z M221.19,59.27 C221.19,64.33 218.44,67.96 213.05,67.96 C207.55,67.96 204.91,64.33 204.91,59.27 L204.91,17.47 C204.91,12.52 207.55,8.78 213.05,8.78 C218.44,8.78 221.19,12.52 221.19,17.47 L221.19,59.27 Z M274.87,75.66 L274.87,69.17 C273,69.17 272.34,68.29 272.34,66.31 L272.34,50.69 C272.34,45.41 269.92,40.46 264.2,39.25 C270.03,37.82 272.01,33.86 272.01,27.59 L272.01,16.48 C272.01,6.36 266.73,1.74 257.38,1.74 L239.45,1.74 L239.45,75 L248.69,75 L248.69,42.88 L256.94,42.88 C261.23,42.88 263.21,45.74 263.21,50.14 L263.21,66.86 C263.21,73.68 265.74,75.66 272.45,75.66 L274.87,75.66 Z M262.88,28.36 C262.88,32.98 260.46,35.51 256.39,35.51 L248.69,35.51 L248.69,9.99 L257.27,9.99 C261.23,9.99 262.88,12.3 262.88,16.15 L262.88,28.36 Z M316.34,75 L301.38,33.31 L316.23,1.74 L306.77,1.74 L290.6,38.7 L290.6,1.74 L281.47,1.74 L281.47,75 L290.6,75 L290.6,53.55 L295.55,42.44 L306.55,75 L316.34,75 Z M353.3,58.5 C353.3,49.59 348.9,42.66 340.43,35.07 C331.85,27.26 328.99,23.08 328.99,15.93 C328.99,11.31 331.52,8.45 336.36,8.45 C341.75,8.45 344.17,12.3 344.17,17.91 L344.17,23.74 L352.86,23.74 L352.86,16.92 C352.86,7.24 346.48,0.42 336.58,0.42 C325.69,0.42 319.97,7.9 319.97,17.69 C319.97,27.26 327.34,35.73 334.05,41.67 C341.53,48.38 344.28,53.33 344.28,60.15 C344.28,65.21 341.64,68.62 336.25,68.62 C331.08,68.62 328.22,65.1 328.22,58.94 L328.22,53.22 L319.2,53.22 L319.2,59.93 C319.2,69.5 325.91,76.32 336.25,76.32 C345.38,76.32 353.3,70.38 353.3,58.5 Z" id="SHE-WORKS" fill="#BBBBBB" sketch:type="MSShapeGroup"></path>
        <path d="M55.76,197 L55.76,90.44 L38.8,90.44 L38.8,136.68 L20.88,136.68 L20.88,90.44 L3.92,90.44 L3.92,197 L20.88,197 L20.88,152.2 L38.8,152.2 L38.8,197 L55.76,197 Z M110.16,197 L110.16,181.48 L84.56,181.48 L84.56,149 L102.32,149 L102.32,134.92 L84.56,134.92 L84.56,105.48 L110.16,105.48 L110.16,90.44 L67.6,90.44 L67.6,197 L110.16,197 Z M170.96,197.48 L170.96,192.68 C168.88,189.96 167.76,186.6 167.76,181.8 L167.76,160.04 C167.76,153.48 164.24,147.72 157.36,145.32 C164.24,142.76 167.44,137.48 167.44,130.28 L167.44,111.4 C167.44,97 158.32,90.44 146.48,90.44 L119.28,90.44 L119.28,197 L136.24,197 L136.24,152.04 L144.56,152.04 C149.2,152.04 151.44,155.56 151.44,159.88 L151.44,182.76 C151.44,191.08 154,197.48 160.56,197.48 L170.96,197.48 Z M150.8,131.24 C150.8,136.36 148.56,138.76 144.4,138.76 L136.24,138.76 L136.24,105 L145.04,105 C149.04,105 150.8,107.4 150.8,111.88 L150.8,131.24 Z M269.68,197 L269.68,90.44 L247.12,90.44 L238,144.36 L234.96,165 L232.08,144.36 L222.8,90.44 L199.92,90.44 L199.92,197 L214.96,197 L214.96,117.8 L218.16,140.2 L227.6,197 L240.4,197 L250.32,140.2 L253.68,117.8 L253.68,197 L269.68,197 Z M331.44,173.64 L331.44,113.8 C331.44,99.08 321.36,88.52 306,88.52 C290.64,88.52 280.56,99.08 280.56,113.8 L280.56,173.64 C280.56,188.52 290.64,198.92 306,198.92 C321.36,198.92 331.44,188.52 331.44,173.64 Z M314.32,174.92 C314.32,180.04 311.28,183.56 306,183.56 C300.72,183.56 297.68,180.04 297.68,174.92 L297.68,112.52 C297.68,107.4 300.72,103.88 306,103.88 C311.28,103.88 314.32,107.4 314.32,112.52 L314.32,174.92 Z M394.48,197 L394.48,90.44 L379.28,90.44 L379.28,155.72 L373.84,139.24 L357.2,90.44 L342.16,90.44 L342.16,197 L357.52,197 L357.52,132.36 L363.44,148.68 L381.36,197 L394.48,197 Z M448.88,197 L448.88,181.48 L423.28,181.48 L423.28,149 L441.04,149 L441.04,134.92 L423.28,134.92 L423.28,105.48 L448.88,105.48 L448.88,90.44 L406.32,90.44 L406.32,197 L448.88,197 Z M508.4,90.44 L491.6,90.44 L480.56,135.08 L469.2,90.44 L451.92,90.44 L471.12,154.12 L471.12,197 L488.08,197 L488.08,154.12 L508.4,90.44 Z" id="HER-MONEY" fill="#4E6A5C" sketch:type="MSShapeGroup"></path>
    </g>
</svg>